<svg version="1.1" id="onfly" xmlns="http://www.w3.org/2000/svg" xmlns:xlink="http://www.w3.org/1999/xlink"
     x="0px" y="0px"
     width="628px" height="268px" viewBox="0 0 628 268" enable-background="new 0 0 628 268" xml:space="preserve">
<path fill="#ffffff" d="M176.62,97.194c0,11.697-2.017,22.586-6.052,32.651c-4.035,10.07-9.718,18.828-17.049,26.268
	c-7.326,7.44-16.16,13.27-26.485,17.489c-10.331,4.224-21.789,6.334-34.375,6.334s-24.061-2.109-34.43-6.334
	C47.866,169.383,39,163.553,31.63,156.113c-7.364-7.44-13.064-16.198-17.098-26.268c-4.04-10.065-6.057-20.954-6.057-32.651
	s2.017-22.581,6.057-32.651c4.035-10.068,9.734-18.806,17.098-26.211C39,30.93,47.866,25.117,58.229,20.898
	c10.368-4.222,21.843-6.331,34.43-6.331s24.045,2.128,34.375,6.385c10.325,4.26,19.159,10.089,26.485,17.491
	c7.332,7.405,13.015,16.144,17.049,26.211C174.603,74.724,176.62,85.572,176.62,97.194z M138.194,97.194
	c0-7.999-1.036-15.195-3.107-21.602c-2.077-6.402-5.054-11.827-8.942-16.269c-3.888-4.444-8.644-7.847-14.273-10.219
	c-5.629-2.367-12.033-3.552-19.213-3.552c-7.256,0-13.714,1.185-19.381,3.552c-5.661,2.373-10.439,5.775-14.322,10.219
	c-3.888,4.441-6.871,9.867-8.942,16.269C47.936,81.999,46.9,89.195,46.9,97.194c0,8.075,1.036,15.309,3.113,21.713
	c2.072,6.404,5.054,11.827,8.942,16.269c3.883,4.441,8.66,7.831,14.322,10.162c5.667,2.332,12.126,3.498,19.381,3.498
	c7.18,0,13.584-1.166,19.213-3.498s10.385-5.721,14.273-10.162c3.888-4.441,6.865-9.864,8.942-16.269
	C137.158,112.502,138.194,105.268,138.194,97.194z"/>
  <path fill="#ffffff" d="M224.824,75.426c2.218-2.072,4.512-3.999,6.882-5.775s4.908-3.275,7.608-4.498
	c2.706-1.22,5.629-2.183,8.774-2.888c3.145-0.702,6.572-1.055,10.276-1.055c6.29,0,11.86,1.093,16.713,3.275
	c4.848,2.185,8.942,5.222,12.272,9.108c3.33,3.888,5.846,8.519,7.554,13.883c1.697,5.369,2.554,11.198,2.554,17.489v73.192h-34.43
	v-73.192c0-5.623-1.296-10.011-3.888-13.156s-6.404-4.718-11.437-4.718c-3.78,0-7.315,0.792-10.607,2.386
	c-3.297,1.594-6.497,3.758-9.609,6.497v82.183h-34.43V62.986h21.328c4.289,0,7.104,1.928,8.438,5.775L224.824,75.426z"/>
  <path fill="#ffffff"
        d="M358.986,45.218v40.983h55.308v28.985h-55.308v62.97h-37.759V16.342H425.4v28.877h-66.414V45.218z"/>
  <path fill="#ffffff" d="M475.821,11.9v166.257h-34.43V11.9H475.821z"/>
  <path fill="#ffffff" d="M608.535,62.986l-67.081,178.363c-1.036,2.294-2.294,3.98-3.774,5.054s1.703,1.611-1.556,1.611H510.36
	l22.212-79.965l-45.98-105.062h30.433c2.663,0,4.718,0.594,6.16,1.779c1.448,1.185,2.5,2.592,3.167,4.219l18.882,49.646
	c1.773,4.512,3.221,9.143,4.327,13.883c0.813-2.37,1.627-4.74,2.446-7.109c0.813-2.37,1.665-4.702,2.554-6.995l17.104-49.424
	c0.667-1.703,1.849-3.126,3.552-4.276c1.703-1.147,3.557-1.722,5.553-1.722h27.765V62.986z"/>
  <path fill="#27AAE1" d="M502.173,30.711c0,0,44.2,4.298,48.099,33.235c0,0,3.312-28.897,44.866-34.116
	c0,0-23.536-14.758-45.097,5.914C550.04,35.744,534.262,20.161,502.173,30.711z"/>
</svg>
